<svg xmlns="http://www.w3.org/2000/svg" width="208.91" height="35" viewBox="0 0 208.91 35"><rect class="svg__rect" x="0" y="0" width="104.67" height="35" fill="#A7BFC1"/><rect class="svg__rect" x="102.67" y="0" width="106.24" height="35" fill="#5593C9"/><path class="svg__text" d="M19.57 22L14.22 22L14.22 13.47L15.70 13.47L15.70 20.82L19.57 20.82L19.57 22ZM25.26 22L23.79 22L23.79 13.47L25.26 13.47L25.26 22ZM33.18 22L30.07 22L30.07 13.47L33.00 13.47Q34.44 13.47 35.20 14.05Q35.96 14.63 35.96 15.78L35.96 15.78Q35.96 16.36 35.64 16.83Q35.32 17.30 34.71 17.56L34.71 17.56Q35.40 17.75 35.78 18.26Q36.16 18.78 36.16 19.51L36.16 19.51Q36.16 20.71 35.39 21.36Q34.62 22 33.18 22L33.18 22ZM31.56 18.15L31.56 20.82L33.20 20.82Q33.90 20.82 34.29 20.47Q34.68 20.13 34.68 19.51L34.68 19.51Q34.68 18.18 33.32 18.15L33.32 18.15L31.56 18.15ZM31.56 14.66L31.56 17.06L33.01 17.06Q33.70 17.06 34.09 16.75Q34.48 16.43 34.48 15.86L34.48 15.86Q34.48 15.23 34.12 14.95Q33.76 14.66 33.00 14.66L33.00 14.66L31.56 14.66ZM42.11 22L40.63 22L40.63 13.47L43.63 13.47Q45.11 13.47 45.91 14.13Q46.71 14.79 46.71 16.05L46.71 16.05Q46.71 16.90 46.30 17.48Q45.89 18.06 45.15 18.37L45.15 18.37L47.06 21.92L47.06 22L45.48 22L43.77 18.71L42.11 18.71L42.11 22ZM42.11 14.66L42.11 17.52L43.64 17.52Q44.39 17.52 44.81 17.15Q45.23 16.77 45.23 16.11L45.23 16.11Q45.23 15.43 44.84 15.05Q44.45 14.68 43.68 14.66L43.68 14.66L42.11 14.66ZM51.89 22L50.35 22L53.57 13.47L54.90 13.47L58.13 22L56.58 22L55.88 20.01L52.58 20.01L51.89 22ZM54.23 15.28L52.99 18.82L55.47 18.82L54.23 15.28ZM63.65 22L62.17 22L62.17 13.47L63.65 13.47L63.65 22ZM69.94 22L68.46 22L68.46 13.47L71.46 13.47Q72.93 13.47 73.74 14.13Q74.54 14.79 74.54 16.05L74.54 16.05Q74.54 16.90 74.13 17.48Q73.71 18.06 72.97 18.37L72.97 18.37L74.89 21.92L74.89 22L73.30 22L71.59 18.71L69.94 18.71L69.94 22ZM69.94 14.66L69.94 17.52L71.46 17.52Q72.21 17.52 72.64 17.15Q73.06 16.77 73.06 16.11L73.06 16.11Q73.06 15.43 72.67 15.05Q72.28 14.68 71.50 14.66L71.50 14.66L69.94 14.66ZM80.50 22L79.02 22L79.02 13.47L80.50 13.47L80.50 22ZM90.89 22L85.31 22L85.31 13.47L90.85 13.47L90.85 14.66L86.79 14.66L86.79 17.02L90.30 17.02L90.30 18.19L86.79 18.19L86.79 20.82L90.89 20.82L90.89 22Z" fill="#FFFFFF"/><path class="svg__text" d="M119.19 22L116.86 22L116.86 13.60L118.81 13.60L122.52 18.07L122.52 13.60L124.85 13.60L124.85 22L122.90 22L119.19 17.52L119.19 22ZM129.58 17.80L129.58 17.80Q129.58 16.54 130.18 15.54Q130.78 14.55 131.83 13.99Q132.88 13.43 134.20 13.43L134.20 13.43Q135.36 13.43 136.28 13.84Q137.20 14.25 137.82 15.02L137.82 15.02L136.31 16.39Q135.49 15.40 134.32 15.40L134.32 15.40Q133.64 15.40 133.11 15.70Q132.57 16 132.28 16.54Q131.98 17.09 131.98 17.80L131.98 17.80Q131.98 18.51 132.28 19.05Q132.57 19.60 133.11 19.90Q133.64 20.20 134.32 20.20L134.32 20.20Q135.49 20.20 136.31 19.22L136.31 19.22L137.82 20.58Q137.21 21.35 136.28 21.76Q135.36 22.17 134.20 22.17L134.20 22.17Q132.88 22.17 131.83 21.61Q130.78 21.05 130.18 20.05Q129.58 19.06 129.58 17.80ZM142.28 18.26L142.28 18.26L142.28 13.60L144.66 13.60L144.66 18.19Q144.66 20.20 146.25 20.20L146.25 20.20Q147.84 20.20 147.84 18.19L147.84 18.19L147.84 13.60L150.18 13.60L150.18 18.26Q150.18 20.13 149.14 21.15Q148.10 22.17 146.23 22.17L146.23 22.17Q144.36 22.17 143.32 21.15Q142.28 20.13 142.28 18.26ZM157.65 22L155.27 22L155.27 13.60L159.11 13.60Q160.25 13.60 161.09 13.98Q161.93 14.35 162.39 15.06Q162.84 15.76 162.84 16.71L162.84 16.71Q162.84 17.62 162.41 18.30Q161.99 18.98 161.20 19.36L161.20 19.36L163.01 22L160.46 22L158.94 19.77L157.65 19.77L157.65 22ZM157.65 15.47L157.65 17.93L158.96 17.93Q159.70 17.93 160.07 17.61Q160.44 17.29 160.44 16.71L160.44 16.71Q160.44 16.12 160.07 15.79Q159.70 15.47 158.96 15.47L158.96 15.47L157.65 15.47ZM167.04 21.24L167.04 21.24L167.82 19.49Q168.39 19.86 169.13 20.09Q169.87 20.32 170.59 20.32L170.59 20.32Q171.96 20.32 171.97 19.64L171.97 19.64Q171.97 19.28 171.58 19.11Q171.19 18.93 170.32 18.74L170.32 18.74Q169.37 18.53 168.73 18.30Q168.10 18.06 167.64 17.55Q167.19 17.03 167.19 16.16L167.19 16.16Q167.19 15.39 167.61 14.77Q168.03 14.15 168.86 13.79Q169.70 13.43 170.90 13.43L170.90 13.43Q171.73 13.43 172.54 13.62Q173.34 13.80 173.96 14.17L173.96 14.17L173.23 15.93Q172.02 15.28 170.89 15.28L170.89 15.28Q170.18 15.28 169.86 15.49Q169.54 15.70 169.54 16.04L169.54 16.04Q169.54 16.37 169.92 16.54Q170.31 16.71 171.16 16.89L171.16 16.89Q172.12 17.10 172.75 17.33Q173.38 17.56 173.84 18.07Q174.30 18.58 174.30 19.46L174.30 19.46Q174.30 20.21 173.88 20.83Q173.47 21.44 172.62 21.80Q171.78 22.17 170.58 22.17L170.58 22.17Q169.56 22.17 168.60 21.92Q167.64 21.67 167.04 21.24ZM185.62 22L178.88 22L178.88 13.60L185.47 13.60L185.47 15.44L181.23 15.44L181.23 16.85L184.97 16.85L184.97 18.63L181.23 18.63L181.23 20.17L185.62 20.17L185.62 22ZM189.84 21.24L189.84 21.24L190.62 19.49Q191.18 19.86 191.93 20.09Q192.67 20.32 193.39 20.32L193.39 20.32Q194.76 20.32 194.76 19.64L194.76 19.64Q194.76 19.28 194.37 19.11Q193.98 18.93 193.12 18.74L193.12 18.74Q192.17 18.53 191.53 18.30Q190.90 18.06 190.44 17.55Q189.99 17.03 189.99 16.16L189.99 16.16Q189.99 15.39 190.41 14.77Q190.83 14.15 191.66 13.79Q192.50 13.43 193.70 13.43L193.70 13.43Q194.53 13.43 195.34 13.62Q196.14 13.80 196.76 14.17L196.76 14.17L196.02 15.93Q194.82 15.28 193.69 15.28L193.69 15.28Q192.98 15.28 192.66 15.49Q192.34 15.70 192.34 16.04L192.34 16.04Q192.34 16.37 192.72 16.54Q193.11 16.71 193.96 16.89L193.96 16.89Q194.92 17.10 195.55 17.33Q196.18 17.56 196.64 18.07Q197.10 18.58 197.10 19.46L197.10 19.46Q197.10 20.21 196.68 20.83Q196.26 21.44 195.42 21.80Q194.58 22.17 193.38 22.17L193.38 22.17Q192.36 22.17 191.40 21.92Q190.44 21.67 189.84 21.24Z" fill="#FFFFFF" x="115.67"/></svg>