<svg xmlns="http://www.w3.org/2000/svg" width="219.26999999999998" height="35" viewBox="0 0 219.26999999999998 35"><rect class="svg__rect" x="0" y="0" width="106.58" height="35" fill="#0B6886"/><rect class="svg__rect" x="104.58" y="0" width="114.69" height="35" fill="#739BB3"/><path class="svg__text" d="M13.95 18.19L13.95 18.19L13.95 17.39Q13.95 16.19 14.38 15.27Q14.80 14.35 15.60 13.85Q16.40 13.35 17.45 13.35L17.45 13.35Q18.86 13.35 19.73 14.12Q20.59 14.89 20.73 16.29L20.73 16.29L19.25 16.29Q19.14 15.37 18.71 14.96Q18.28 14.55 17.45 14.55L17.45 14.55Q16.48 14.55 15.97 15.26Q15.45 15.96 15.44 17.33L15.44 17.33L15.44 18.09Q15.44 19.47 15.93 20.20Q16.43 20.92 17.38 20.92L17.38 20.92Q18.25 20.92 18.69 20.53Q19.13 20.14 19.25 19.22L19.25 19.22L20.73 19.22Q20.60 20.59 19.72 21.35Q18.84 22.12 17.38 22.12L17.38 22.12Q16.36 22.12 15.59 21.63Q14.81 21.15 14.39 20.26Q13.97 19.37 13.95 18.19ZM24.77 18.00L24.77 18.00L24.77 17.52Q24.77 16.28 25.21 15.32Q25.65 14.37 26.46 13.86Q27.27 13.35 28.31 13.35Q29.35 13.35 30.16 13.85Q30.96 14.35 31.40 15.29Q31.84 16.23 31.85 17.48L31.85 17.48L31.85 17.96Q31.85 19.21 31.41 20.16Q30.98 21.10 30.18 21.61Q29.37 22.12 28.32 22.12L28.32 22.12Q27.28 22.12 26.47 21.61Q25.66 21.10 25.22 20.17Q24.78 19.23 24.77 18.00ZM26.25 17.46L26.25 17.96Q26.25 19.36 26.80 20.13Q27.35 20.90 28.32 20.90L28.32 20.90Q29.31 20.90 29.84 20.15Q30.37 19.40 30.37 17.96L30.37 17.96L30.37 17.51Q30.37 16.09 29.83 15.34Q29.29 14.58 28.31 14.58L28.31 14.58Q27.35 14.58 26.81 15.33Q26.26 16.09 26.25 17.46L26.25 17.46ZM37.79 22L36.31 22L36.31 13.47L38.23 13.47L40.70 20.01L43.15 13.47L45.07 13.47L45.07 22L43.59 22L43.59 19.19L43.74 15.43L41.22 22L40.16 22L37.64 15.43L37.79 19.19L37.79 22ZM51.29 22L49.81 22L49.81 13.47L53.07 13.47Q54.50 13.47 55.34 14.21Q56.18 14.96 56.18 16.18L56.18 16.18Q56.18 17.44 55.36 18.13Q54.54 18.83 53.05 18.83L53.05 18.83L51.29 18.83L51.29 22ZM51.29 14.66L51.29 17.64L53.07 17.64Q53.86 17.64 54.28 17.27Q54.69 16.90 54.69 16.19L54.69 16.19Q54.69 15.50 54.27 15.09Q53.85 14.68 53.11 14.66L53.11 14.66L51.29 14.66ZM62.03 22L60.55 22L60.55 13.47L62.03 13.47L62.03 22ZM72.20 22L66.84 22L66.84 13.47L68.32 13.47L68.32 20.82L72.20 20.82L72.20 22ZM81.90 22L76.32 22L76.32 13.47L81.86 13.47L81.86 14.66L77.80 14.66L77.80 17.02L81.31 17.02L81.31 18.19L77.80 18.19L77.80 20.82L81.90 20.82L81.90 22ZM87.58 22L86.09 22L86.09 13.47L89.09 13.47Q90.57 13.47 91.37 14.13Q92.18 14.79 92.18 16.05L92.18 16.05Q92.18 16.90 91.76 17.48Q91.35 18.06 90.61 18.37L90.61 18.37L92.53 21.92L92.53 22L90.94 22L89.23 18.71L87.58 18.71L87.58 22ZM87.58 14.66L87.58 17.52L89.10 17.52Q89.85 17.52 90.27 17.15Q90.69 16.77 90.69 16.11L90.69 16.11Q90.69 15.43 90.30 15.05Q89.91 14.68 89.14 14.66L89.14 14.66L87.58 14.66Z" fill="#FFFFFF"/><path class="svg__text" d="M118.34 17.80L118.34 17.80Q118.34 16.54 118.94 15.54Q119.54 14.55 120.60 13.99Q121.67 13.43 123.02 13.43L123.02 13.43Q124.19 13.43 125.13 13.83Q126.07 14.22 126.69 14.97L126.69 14.97L125.18 16.33Q124.33 15.40 123.16 15.40L123.16 15.40Q123.14 15.40 123.14 15.40L123.14 15.40Q122.06 15.40 121.40 16.06Q120.74 16.71 120.74 17.80L120.74 17.80Q120.74 18.50 121.04 19.04Q121.34 19.59 121.88 19.89Q122.42 20.20 123.12 20.20L123.12 20.20Q123.80 20.20 124.40 19.93L124.40 19.93L124.40 17.62L126.50 17.62L126.50 21.10Q125.78 21.61 124.84 21.89Q123.91 22.17 122.97 22.17L122.97 22.17Q121.65 22.17 120.59 21.61Q119.54 21.05 118.94 20.05Q118.34 19.06 118.34 17.80ZM131.06 17.80L131.06 17.80Q131.06 16.54 131.66 15.54Q132.26 14.55 133.31 13.99Q134.36 13.43 135.68 13.43L135.68 13.43Q136.83 13.43 137.76 13.84Q138.68 14.25 139.29 15.02L139.29 15.02L137.78 16.39Q136.97 15.40 135.80 15.40L135.80 15.40Q135.12 15.40 134.58 15.70Q134.05 16 133.75 16.54Q133.46 17.09 133.46 17.80L133.46 17.80Q133.46 18.51 133.75 19.05Q134.05 19.60 134.58 19.90Q135.12 20.20 135.80 20.20L135.80 20.20Q136.97 20.20 137.78 19.22L137.78 19.22L139.29 20.58Q138.68 21.35 137.76 21.76Q136.83 22.17 135.68 22.17L135.68 22.17Q134.36 22.17 133.31 21.61Q132.26 21.05 131.66 20.05Q131.06 19.06 131.06 17.80ZM143.40 17.80L143.40 17.80Q143.40 16.54 144.00 15.54Q144.60 14.55 145.65 13.99Q146.70 13.43 148.02 13.43L148.02 13.43Q149.17 13.43 150.10 13.84Q151.02 14.25 151.63 15.02L151.63 15.02L150.12 16.39Q149.31 15.40 148.14 15.40L148.14 15.40Q147.46 15.40 146.92 15.70Q146.39 16 146.09 16.54Q145.80 17.09 145.80 17.80L145.80 17.80Q145.80 18.51 146.09 19.05Q146.39 19.60 146.92 19.90Q147.46 20.20 148.14 20.20L148.14 20.20Q149.31 20.20 150.12 19.22L150.12 19.22L151.63 20.58Q151.02 21.35 150.10 21.76Q149.17 22.17 148.02 22.17L148.02 22.17Q146.70 22.17 145.65 21.61Q144.60 21.05 144.00 20.05Q143.40 19.06 143.40 17.80ZM162.50 16.30L162.50 16.30Q162.50 15.45 162.93 14.80Q163.37 14.14 164.12 13.79Q164.87 13.43 165.78 13.43L165.78 13.43Q167.59 13.43 168.64 14.50Q169.69 15.57 169.69 17.57L169.69 17.57Q169.69 19.01 169.13 20.05Q168.57 21.09 167.55 21.63Q166.54 22.17 165.21 22.17L165.21 22.17Q164.50 22.17 163.85 22.01Q163.21 21.84 162.75 21.55L162.75 21.55L163.61 19.85Q164.22 20.28 165.16 20.28L165.16 20.28Q166.06 20.28 166.62 19.79Q167.17 19.29 167.27 18.34L167.27 18.34Q166.55 18.95 165.39 18.95L165.39 18.95Q164.59 18.95 163.93 18.62Q163.28 18.29 162.89 17.68Q162.50 17.08 162.50 16.30ZM164.80 16.19L164.80 16.19Q164.80 16.67 165.12 16.96Q165.44 17.25 165.95 17.25L165.95 17.25Q166.47 17.25 166.79 16.96Q167.11 16.66 167.11 16.18L167.11 16.18Q167.11 15.71 166.80 15.42Q166.48 15.12 165.94 15.12L165.94 15.12Q165.44 15.12 165.12 15.41Q164.80 15.70 164.80 16.19ZM173.90 20.75L173.90 20.75Q173.90 20.15 174.29 19.78Q174.68 19.41 175.27 19.41L175.27 19.41Q175.87 19.41 176.25 19.78Q176.64 20.15 176.64 20.75L176.64 20.75Q176.64 21.34 176.25 21.72Q175.86 22.11 175.27 22.11L175.27 22.11Q174.69 22.11 174.29 21.72Q173.90 21.34 173.90 20.75ZM185.22 20.39L180.78 20.39L180.78 18.84L184.55 13.60L187.01 13.60L183.59 18.51L185.29 18.51L185.29 17.08L187.53 17.08L187.53 18.51L188.78 18.51L188.78 20.39L187.53 20.39L187.53 22L185.22 22L185.22 20.39ZM192.66 20.75L192.66 20.75Q192.66 20.15 193.05 19.78Q193.44 19.41 194.03 19.41L194.03 19.41Q194.63 19.41 195.01 19.78Q195.40 20.15 195.40 20.75L195.40 20.75Q195.40 21.34 195.01 21.72Q194.62 22.11 194.03 22.11L194.03 22.11Q193.45 22.11 193.06 21.72Q192.66 21.34 192.66 20.75ZM199.63 17.80L199.63 17.80Q199.63 16.45 200.10 15.46Q200.57 14.46 201.41 13.95Q202.25 13.43 203.33 13.43L203.33 13.43Q204.40 13.43 205.24 13.95Q206.08 14.46 206.55 15.46Q207.03 16.45 207.03 17.80L207.03 17.80Q207.03 19.15 206.55 20.15Q206.08 21.14 205.24 21.65Q204.40 22.17 203.33 22.17L203.33 22.17Q202.25 22.17 201.41 21.65Q200.57 21.14 200.10 20.15Q199.63 19.16 199.63 17.80ZM202.01 17.80L202.01 17.80Q202.01 19.06 202.37 19.64Q202.72 20.22 203.33 20.22L203.33 20.22Q203.93 20.22 204.29 19.64Q204.64 19.06 204.64 17.80L204.64 17.80Q204.64 16.54 204.29 15.96Q203.93 15.38 203.33 15.38L203.33 15.38Q202.72 15.38 202.37 15.96Q202.01 16.54 202.01 17.80Z" fill="#FFFFFF" x="117.58"/></svg>