<svg xmlns="http://www.w3.org/2000/svg" width="131.06" height="35" viewBox="0 0 131.06 35"><rect class="svg__rect" x="0" y="0" width="98.83" height="35" fill="#31C4F3"/><rect class="svg__rect" x="96.83" y="0" width="34.22999999999999" height="35" fill="#389AD5"/><path class="svg__text" d="M19.57 22L14.22 22L14.22 13.47L15.70 13.47L15.70 20.82L19.57 20.82L19.57 22ZM24.48 22L22.94 22L26.16 13.47L27.49 13.47L30.72 22L29.17 22L28.47 20.01L25.17 20.01L24.48 22ZM26.82 15.28L25.58 18.82L28.06 18.82L26.82 15.28ZM36.15 22L34.67 22L34.67 13.47L36.15 13.47L39.97 19.54L39.97 13.47L41.44 13.47L41.44 22L39.96 22L36.15 15.95L36.15 22ZM45.93 18.13L45.93 18.13L45.93 17.46Q45.93 15.53 46.86 14.44Q47.79 13.35 49.44 13.35L49.44 13.35Q50.87 13.35 51.71 14.05Q52.54 14.76 52.71 16.08L52.71 16.08L51.26 16.08Q51.01 14.54 49.47 14.54L49.47 14.54Q48.48 14.54 47.96 15.26Q47.44 15.98 47.42 17.37L47.42 17.37L47.42 18.02Q47.42 19.40 48.01 20.17Q48.59 20.93 49.63 20.93L49.63 20.93Q50.76 20.93 51.24 20.42L51.24 20.42L51.24 18.75L49.48 18.75L49.48 17.62L52.72 17.62L52.72 20.89Q52.26 21.50 51.44 21.81Q50.62 22.12 49.57 22.12L49.57 22.12Q48.50 22.12 47.67 21.63Q46.85 21.14 46.40 20.24Q45.95 19.33 45.93 18.13ZM58.12 22L56.57 22L59.80 13.47L61.13 13.47L64.36 22L62.81 22L62.11 20.01L58.81 20.01L58.12 22ZM60.46 15.28L59.22 18.82L61.70 18.82L60.46 15.28ZM68.06 18.13L68.06 18.13L68.06 17.46Q68.06 15.53 68.99 14.44Q69.92 13.35 71.57 13.35L71.57 13.35Q73.00 13.35 73.84 14.05Q74.67 14.76 74.84 16.08L74.84 16.08L73.39 16.08Q73.14 14.54 71.60 14.54L71.60 14.54Q70.61 14.54 70.09 15.26Q69.57 15.98 69.55 17.37L69.55 17.37L69.55 18.02Q69.55 19.40 70.14 20.17Q70.72 20.93 71.76 20.93L71.76 20.93Q72.89 20.93 73.37 20.42L73.37 20.42L73.37 18.75L71.62 18.75L71.62 17.62L74.85 17.62L74.85 20.89Q74.39 21.50 73.57 21.81Q72.75 22.12 71.70 22.12L71.70 22.12Q70.63 22.12 69.81 21.63Q68.98 21.14 68.53 20.24Q68.08 19.33 68.06 18.13ZM85.05 22L79.47 22L79.47 13.47L85.00 13.47L85.00 14.66L80.95 14.66L80.95 17.02L84.45 17.02L84.45 18.19L80.95 18.19L80.95 20.82L85.05 20.82L85.05 22Z" fill="#FFFFFF"/><path class="svg__text" d="M110.59 17.80L110.59 17.80Q110.59 16.54 111.19 15.54Q111.79 14.55 112.84 13.99Q113.89 13.43 115.21 13.43L115.21 13.43Q116.36 13.43 117.28 13.84Q118.21 14.25 118.82 15.02L118.82 15.02L117.31 16.39Q116.50 15.40 115.33 15.40L115.33 15.40Q114.64 15.40 114.11 15.70Q113.58 16 113.28 16.54Q112.99 17.09 112.99 17.80L112.99 17.80Q112.99 18.51 113.28 19.05Q113.58 19.60 114.11 19.90Q114.64 20.20 115.33 20.20L115.33 20.20Q116.50 20.20 117.31 19.22L117.31 19.22L118.82 20.58Q118.21 21.35 117.29 21.76Q116.36 22.17 115.21 22.17L115.21 22.17Q113.89 22.17 112.84 21.61Q111.79 21.05 111.19 20.05Q110.59 19.06 110.59 17.80Z" fill="#FFFFFF" x="109.83"/></svg>