<svg xmlns="http://www.w3.org/2000/svg" width="196.97" height="35" viewBox="0 0 196.97 35"><rect class="svg__rect" x="0" y="0" width="92.73" height="35" fill="#A7BFC1"/><rect class="svg__rect" x="90.73" y="0" width="106.24" height="35" fill="#5593C9"/><path class="svg__text" d="M19.57 22L14.22 22L14.22 13.47L15.70 13.47L15.70 20.82L19.57 20.82L19.57 22ZM25.26 22L23.79 22L23.79 13.47L25.26 13.47L25.26 22ZM33.18 22L30.07 22L30.07 13.47L33.00 13.47Q34.44 13.47 35.20 14.05Q35.96 14.63 35.96 15.78L35.96 15.78Q35.96 16.36 35.64 16.83Q35.32 17.30 34.71 17.56L34.71 17.56Q35.40 17.75 35.78 18.26Q36.16 18.78 36.16 19.51L36.16 19.51Q36.16 20.71 35.39 21.36Q34.62 22 33.18 22L33.18 22ZM31.56 18.15L31.56 20.82L33.20 20.82Q33.90 20.82 34.29 20.47Q34.68 20.13 34.68 19.51L34.68 19.51Q34.68 18.18 33.32 18.15L33.32 18.15L31.56 18.15ZM31.56 14.66L31.56 17.06L33.01 17.06Q33.70 17.06 34.09 16.75Q34.48 16.43 34.48 15.86L34.48 15.86Q34.48 15.23 34.12 14.95Q33.76 14.66 33.00 14.66L33.00 14.66L31.56 14.66ZM42.11 22L40.63 22L40.63 13.47L43.63 13.47Q45.11 13.47 45.91 14.13Q46.71 14.79 46.71 16.05L46.71 16.05Q46.71 16.90 46.30 17.48Q45.89 18.06 45.15 18.37L45.15 18.37L47.06 21.92L47.06 22L45.48 22L43.77 18.71L42.11 18.71L42.11 22ZM42.11 14.66L42.11 17.52L43.64 17.52Q44.39 17.52 44.81 17.15Q45.23 16.77 45.23 16.11L45.23 16.11Q45.23 15.43 44.84 15.05Q44.45 14.68 43.68 14.66L43.68 14.66L42.11 14.66ZM51.89 22L50.35 22L53.57 13.47L54.90 13.47L58.13 22L56.58 22L55.88 20.01L52.58 20.01L51.89 22ZM54.23 15.28L52.99 18.82L55.47 18.82L54.23 15.28ZM63.56 22L62.08 22L62.08 13.47L65.08 13.47Q66.56 13.47 67.36 14.13Q68.16 14.79 68.16 16.05L68.16 16.05Q68.16 16.90 67.75 17.48Q67.34 18.06 66.60 18.37L66.60 18.37L68.52 21.92L68.52 22L66.93 22L65.22 18.71L63.56 18.71L63.56 22ZM63.56 14.66L63.56 17.52L65.09 17.52Q65.84 17.52 66.26 17.15Q66.68 16.77 66.68 16.11L66.68 16.11Q66.68 15.43 66.29 15.05Q65.90 14.68 65.13 14.66L65.13 14.66L63.56 14.66ZM74.60 18.86L71.73 13.47L73.38 13.47L75.34 17.51L77.31 13.47L78.95 13.47L76.09 18.86L76.09 22L74.60 22L74.60 18.86Z" fill="#FFFFFF"/><path class="svg__text" d="M107.25 22L104.92 22L104.92 13.60L106.87 13.60L110.58 18.07L110.58 13.60L112.91 13.60L112.91 22L110.96 22L107.25 17.52L107.25 22ZM117.64 17.80L117.64 17.80Q117.64 16.54 118.24 15.54Q118.84 14.55 119.89 13.99Q120.94 13.43 122.26 13.43L122.26 13.43Q123.42 13.43 124.34 13.84Q125.26 14.25 125.88 15.02L125.88 15.02L124.37 16.39Q123.55 15.40 122.38 15.40L122.38 15.40Q121.70 15.40 121.17 15.70Q120.63 16 120.34 16.54Q120.04 17.09 120.04 17.80L120.04 17.80Q120.04 18.51 120.34 19.05Q120.63 19.60 121.17 19.90Q121.70 20.20 122.38 20.20L122.38 20.20Q123.55 20.20 124.37 19.22L124.37 19.22L125.88 20.58Q125.27 21.35 124.34 21.76Q123.42 22.17 122.26 22.17L122.26 22.17Q120.94 22.17 119.89 21.61Q118.84 21.05 118.24 20.05Q117.64 19.06 117.64 17.80ZM130.34 18.26L130.34 18.26L130.34 13.60L132.72 13.60L132.72 18.19Q132.72 20.20 134.31 20.20L134.31 20.20Q135.90 20.20 135.90 18.19L135.90 18.19L135.90 13.60L138.24 13.60L138.24 18.26Q138.24 20.13 137.20 21.15Q136.16 22.17 134.29 22.17L134.29 22.17Q132.42 22.17 131.38 21.15Q130.34 20.13 130.34 18.26ZM145.71 22L143.33 22L143.33 13.60L147.17 13.60Q148.31 13.60 149.15 13.98Q149.99 14.35 150.45 15.06Q150.90 15.76 150.90 16.71L150.90 16.71Q150.90 17.62 150.47 18.30Q150.05 18.98 149.26 19.36L149.26 19.36L151.07 22L148.52 22L147.00 19.77L145.71 19.77L145.71 22ZM145.71 15.47L145.71 17.93L147.02 17.93Q147.76 17.93 148.13 17.61Q148.50 17.29 148.50 16.71L148.50 16.71Q148.50 16.12 148.13 15.79Q147.76 15.47 147.02 15.47L147.02 15.47L145.71 15.47ZM155.10 21.24L155.10 21.24L155.88 19.49Q156.45 19.86 157.19 20.09Q157.93 20.32 158.65 20.32L158.65 20.32Q160.02 20.32 160.03 19.64L160.03 19.64Q160.03 19.28 159.64 19.11Q159.25 18.93 158.38 18.74L158.38 18.74Q157.43 18.53 156.79 18.30Q156.16 18.06 155.70 17.55Q155.25 17.03 155.25 16.16L155.25 16.16Q155.25 15.39 155.67 14.77Q156.09 14.15 156.92 13.79Q157.76 13.43 158.96 13.43L158.96 13.43Q159.79 13.43 160.60 13.62Q161.40 13.80 162.02 14.17L162.02 14.17L161.29 15.93Q160.08 15.28 158.95 15.28L158.95 15.28Q158.24 15.28 157.92 15.49Q157.60 15.70 157.60 16.04L157.60 16.04Q157.60 16.37 157.98 16.54Q158.37 16.71 159.22 16.89L159.22 16.89Q160.18 17.10 160.81 17.33Q161.44 17.56 161.90 18.07Q162.36 18.58 162.36 19.46L162.36 19.46Q162.36 20.21 161.94 20.83Q161.53 21.44 160.68 21.80Q159.84 22.17 158.64 22.17L158.64 22.17Q157.62 22.17 156.66 21.92Q155.70 21.67 155.10 21.24ZM173.68 22L166.94 22L166.94 13.60L173.53 13.60L173.53 15.44L169.29 15.44L169.29 16.85L173.03 16.85L173.03 18.63L169.29 18.63L169.29 20.17L173.68 20.17L173.68 22ZM177.90 21.24L177.90 21.24L178.68 19.49Q179.24 19.86 179.99 20.09Q180.73 20.32 181.45 20.32L181.45 20.32Q182.82 20.32 182.82 19.64L182.82 19.64Q182.82 19.28 182.43 19.11Q182.04 18.93 181.18 18.74L181.18 18.74Q180.23 18.53 179.59 18.30Q178.96 18.06 178.50 17.55Q178.05 17.03 178.05 16.16L178.05 16.16Q178.05 15.39 178.47 14.77Q178.89 14.15 179.72 13.79Q180.56 13.43 181.76 13.43L181.76 13.43Q182.59 13.43 183.40 13.62Q184.20 13.80 184.82 14.17L184.82 14.17L184.08 15.93Q182.88 15.28 181.75 15.28L181.75 15.28Q181.04 15.28 180.72 15.49Q180.40 15.70 180.40 16.04L180.40 16.04Q180.40 16.37 180.78 16.54Q181.17 16.71 182.02 16.89L182.02 16.89Q182.98 17.10 183.61 17.33Q184.24 17.56 184.70 18.07Q185.16 18.58 185.16 19.46L185.16 19.46Q185.16 20.21 184.74 20.83Q184.32 21.44 183.48 21.80Q182.64 22.17 181.44 22.17L181.44 22.17Q180.42 22.17 179.46 21.92Q178.50 21.67 177.90 21.24Z" fill="#FFFFFF" x="103.73"/></svg>